<?xml version="1.0" encoding="UTF-8"?>
<svg version="1.1" xmlns="http://www.w3.org/2000/svg" width="225" height="225">
<path d="M0 0 C7.54023555 -0.05775851 15.08035563 -0.08688828 22.62078857 -0.10217285 C23.68416443 -0.10503296 24.74754028 -0.10789307 25.84313965 -0.11083984 C32.95761374 -0.12426519 40.06959551 -0.08479121 47.18328857 0.02282715 C48.61164032 0.04270691 48.61164032 0.04270691 50.06884766 0.06298828 C52.7866404 0.1118451 55.50174304 0.19041173 58.21844482 0.28063965 C59.40693275 0.30104813 59.40693275 0.30104813 60.61943054 0.3218689 C67.06368032 0.594202 72.70061959 2.38678865 77.20672607 7.17126465 C81.65612427 14.50119809 83.95165461 20.36270166 83.18328857 29.02282715 C82.3880187 32.07136165 81.58788905 33.57327106 79.49578857 35.89782715 C76.05202897 37.57316966 73.81491214 37.01326994 70.18328857 36.02282715 C67.04874619 32.88828477 66.78720802 30.29260107 66.62078857 25.96032715 C66.45440659 21.18940536 66.45440659 21.18940536 64.18328857 17.02282715 C60.98317798 16.51028587 60.98317798 16.51028587 57.20672607 16.5111084 C56.17885483 16.48418159 56.17885483 16.48418159 55.13021851 16.45671082 C52.93963798 16.40249007 50.74927668 16.36867662 48.55828857 16.33532715 C47.07388298 16.30216421 45.58950637 16.2676755 44.10516357 16.23181152 C40.46474945 16.146759 36.82425913 16.08000359 33.18328857 16.02282715 C33.05309326 16.95739746 32.92289795 17.89196777 32.78875732 18.8548584 C32.05589455 22.68938554 30.93103226 24.27508347 28.18328857 27.02282715 C23.75660415 29.87557933 20.41748928 30.66562373 15.18328857 30.02282715 C9.87851621 28.05025423 6.82272236 25.09054002 4.18328857 20.02282715 C4.18328857 18.70282715 4.18328857 17.38282715 4.18328857 16.02282715 C-0.37909074 15.93563084 -4.94125529 15.88236793 -9.50421143 15.83532715 C-10.79778564 15.81019043 -12.09135986 15.78505371 -13.4241333 15.75915527 C-14.67130127 15.7494873 -15.91846924 15.73981934 -17.20343018 15.7298584 C-18.35029297 15.71414795 -19.49715576 15.6984375 -20.67877197 15.68225098 C-24.30495253 16.07581838 -25.97824502 16.74164149 -28.81671143 19.02282715 C-29.56424384 21.99359036 -29.56424384 21.99359036 -29.43144226 25.48231506 C-29.43712552 26.14091914 -29.44280877 26.79952321 -29.44866425 27.47808498 C-29.46160568 29.68968264 -29.43874809 31.8994636 -29.41607666 34.11096191 C-29.41794003 35.69435002 -29.42197519 37.27773685 -29.42802429 38.8611145 C-29.43801855 43.16490338 -29.4167979 47.46803614 -29.38954425 51.77172971 C-29.3657566 56.26979921 -29.36865953 60.76785475 -29.36824036 65.26597595 C-29.36360906 72.81939845 -29.33994427 80.37256925 -29.30377197 87.92590332 C-29.26202152 96.66749533 -29.24445643 105.40886062 -29.24115223 114.15054661 C-29.23755675 123.44547515 -29.21868763 132.74032169 -29.19403195 142.03521609 C-29.18779413 144.71898415 -29.18416363 147.40274596 -29.18099785 150.08651924 C-29.17511023 154.29804306 -29.15883351 158.50940377 -29.13439369 162.72085953 C-29.12693406 164.26967674 -29.1228805 165.81851451 -29.12241364 167.36734962 C-29.12116196 169.47517726 -29.107665 171.58257028 -29.09086609 173.69032288 C-29.08621558 174.8718522 -29.08156507 176.05338152 -29.07677364 177.27071476 C-29.0981478 180.16635657 -29.0981478 180.16635657 -26.81671143 182.02282715 C-24.50062174 182.35407611 -24.50062174 182.35407611 -21.7822876 182.3416748 C-20.72905807 182.36154449 -19.67582855 182.38141418 -18.59068298 182.40188599 C-17.44195206 182.41343719 -16.29322113 182.4249884 -15.10968018 182.43688965 C-13.9193367 182.4562558 -12.72899323 182.47562195 -11.50257874 182.49557495 C-7.66986379 182.55548725 -3.83711372 182.60163311 -0.00421143 182.64782715 C2.50686953 182.68602834 5.01793769 182.72508131 7.5289917 182.76501465 C18.68417985 182.93464664 29.83924601 183.05460597 40.99578857 183.0657959 C41.8163826 183.06701447 42.63697662 183.06823303 43.48243713 183.06948853 C53.89874372 183.22078984 53.89874372 183.22078984 64.18328857 182.02282715 C67.47409181 177.08662229 67.30414132 171.75397985 66.18328857 166.02282715 C61.48379552 159.86845418 52.43744432 158.1825853 45.18328857 157.02282715 C37.65982651 156.44195489 30.09996805 156.46343867 22.55828857 156.39782715 C19.52090271 156.36128428 16.48364437 156.3207508 13.44638062 156.275177 C11.56785644 156.24802046 9.68923797 156.2266389 7.81057739 156.2116394 C6.96854767 156.20137726 6.12651794 156.19111511 5.25897217 156.18054199 C4.51795258 156.17404633 3.77693298 156.16755066 3.01345825 156.16085815 C1.18328857 156.02282715 1.18328857 156.02282715 -0.81671143 155.02282715 C-0.81671143 154.36282715 -0.81671143 153.70282715 -0.81671143 153.02282715 C-1.47671143 153.02282715 -2.13671143 153.02282715 -2.81671143 153.02282715 C-4.04637187 135.51347076 -3.971124 118.00126378 -3.94708252 100.45935059 C-3.94137723 96.23998037 -3.9446835 92.0206737 -3.95065498 87.80130577 C-3.95431269 84.48936506 -3.95309859 81.17743879 -3.95052719 77.86549759 C-3.94987272 76.31178403 -3.95063275 74.75806903 -3.95300674 73.20435715 C-3.95905118 68.14244841 -3.9142741 63.08379767 -3.81671143 58.02282715 C-3.80350609 57.21708504 -3.79030075 56.41134293 -3.77669525 55.58118439 C-3.72663064 53.11337503 -3.64686844 50.64822234 -3.55841064 48.18151855 C-3.53803332 47.04507432 -3.53803332 47.04507432 -3.51724434 45.88567162 C-3.3631194 42.42997026 -3.0687309 40.3639106 -0.99032593 37.55099487 C2.17505319 35.32556336 5.25350648 35.3432971 8.99578857 35.27282715 C9.77551025 35.2460791 10.55523193 35.21933105 11.35858154 35.19177246 C13.96673221 35.11309367 16.57435322 35.06776844 19.18328857 35.02282715 C20.11866455 34.9970459 21.05404053 34.97126465 22.01776123 34.94470215 C41.46370016 34.42152236 58.09871226 36.0568243 75.18328857 46.02282715 C75.84328857 46.02282715 76.50328857 46.02282715 77.18328857 46.02282715 C77.67828857 45.03282715 77.67828857 45.03282715 78.18328857 44.02282715 C94.80960237 34.0902241 112.5744962 34.96769917 131.37078857 34.77282715 C132.5288501 34.75139648 133.68691162 34.72996582 134.88006592 34.70788574 C141.04005406 34.68361613 145.86021084 34.75388315 151.18328857 38.02282715 C153.00455848 40.89512836 153.43498687 43.11067099 153.44398499 46.48091125 C153.45106979 47.36819412 153.4581546 48.25547699 153.4654541 49.16964722 C153.46297668 50.13544708 153.46049927 51.10124695 153.45794678 52.09631348 C153.46305771 53.11953201 153.46816864 54.14275055 153.47343445 55.19697571 C153.48734587 58.58299595 153.48637222 61.96881295 153.48406982 65.3548584 C153.48795642 67.70891902 153.49229102 70.06297895 153.49705505 72.41703796 C153.50452099 77.35409822 153.50422364 82.29108698 153.4989624 87.22814941 C153.49317296 93.54991518 153.51008452 99.87138748 153.53330708 106.19310474 C153.5480527 111.0564698 153.54891487 115.91976436 153.54579735 120.78314781 C153.54631033 123.11350777 153.55154365 125.4438717 153.56160927 127.77420998 C153.57396951 131.0367184 153.56718356 134.29865765 153.55560303 137.56115723 C153.56324677 138.5208844 153.5708905 139.48061157 153.57876587 140.46942139 C153.53489101 146.072332 152.90378189 150.0825755 150.18328857 155.02282715 C146.74618882 156.74137703 142.78845815 156.20280528 139.00360107 156.23376465 C137.10515548 156.26186906 135.20671812 156.29053368 133.30828857 156.31970215 C130.32229155 156.36068642 127.33644217 156.39757619 124.35028076 156.42419434 C102.22684882 156.08139159 102.22684882 156.08139159 83.18328857 166.02282715 C83.10736569 167.9314441 83.0365608 169.84044133 82.99530029 171.75012207 C82.75841331 180.67068914 81.91286831 186.33473496 75.40203857 192.78845215 C70.90263824 196.86841686 67.73683092 198.13122372 61.59906006 198.24401855 C60.44662308 198.26712097 59.2941861 198.29022339 58.10682678 198.31402588 C56.85202011 198.33394592 55.59721344 198.35386597 54.30438232 198.37438965 C53.00079269 198.39817688 51.69720306 198.42196411 50.35411072 198.44647217 C46.10979048 198.52222157 41.86533352 198.58613789 37.62078857 198.64782715 C36.90447014 198.65843422 36.1881517 198.66904129 35.45012665 198.67996979 C-0.22371814 199.20418116 -0.22371814 199.20418116 -14.12503052 198.93560791 C-16.12694513 198.89901113 -18.12921313 198.88365938 -20.13140869 198.86901855 C-28.24768995 198.63347555 -34.25913718 197.10484681 -40.39605713 191.60827637 C-47.72522455 183.05253068 -46.10856951 168.35907532 -46.07550049 157.82849121 C-46.07821816 156.35350879 -46.0817834 154.87852774 -46.08612061 153.40354919 C-46.09515153 149.43893056 -46.09174008 145.47441731 -46.08536243 141.5097971 C-46.08025763 137.34069624 -46.08500588 133.1716037 -46.08813477 129.00250244 C-46.09175984 122.00909829 -46.0870121 115.01573656 -46.07745361 108.02233887 C-46.06655481 99.95551548 -46.07011086 91.8887931 -46.08110642 83.82197213 C-46.09020067 76.86960116 -46.09145465 69.91726047 -46.08622909 62.96488547 C-46.08312331 58.82378468 -46.08266189 54.68273129 -46.08930206 50.54163361 C-46.09510672 46.65090799 -46.09102195 42.760312 -46.07951355 38.8696003 C-46.07688431 37.44787116 -46.07760213 36.026131 -46.08203888 34.60440636 C-46.13709162 15.16142366 -46.13709162 15.16142366 -41.19171143 8.71032715 C-40.7456958 8.09544434 -40.29968018 7.48056152 -39.84014893 6.8470459 C-33.57869118 1.20206373 -27.11889279 0.3844654 -18.94171143 0.27282715 C-17.82401367 0.24462891 -16.70631592 0.21643066 -15.55474854 0.18737793 C-10.36997025 0.0791306 -5.18565691 0.04202552 0 0 Z M12.18328857 51.02282715 C12.18328857 80.72282715 12.18328857 110.42282715 12.18328857 141.02282715 C24.06328857 141.35282715 35.94328857 141.68282715 48.18328857 142.02282715 C64.84995524 146.46727159 64.84995524 146.46727159 70.44891357 149.9720459 C72.31342621 151.18905127 72.31342621 151.18905127 75.18328857 152.02282715 C77.02663819 151.45950473 77.02663819 151.45950473 78.91375732 150.4407959 C79.63498779 150.08565918 80.35621826 149.73052246 81.0993042 149.36462402 C82.22368896 148.79324707 82.22368896 148.79324707 83.37078857 148.21032715 C84.83979799 147.46739476 86.31245946 146.73163772 87.78875732 146.0032959 C88.43997559 145.67224854 89.09119385 145.34120117 89.762146 145.00012207 C104.88334996 138.89644359 120.88534059 141.46331223 137.18328857 141.02282715 C137.18328857 111.32282715 137.18328857 81.62282715 137.18328857 51.02282715 C106.38208586 49.30423509 106.38208586 49.30423509 80.99578857 61.39782715 C78.13933329 63.61186679 77.39600795 64.00789947 73.62078857 64.27282715 C69.8841052 62.9140332 68.05085026 61.32450084 65.21063232 58.6517334 C50.32738545 46.69351771 29.66983296 51.02282715 12.18328857 51.02282715 Z " fill="#030303" transform="translate(58.81671142578125,12.9771728515625)"/>
<path d="M0 0 C3.375 0.375 3.375 0.375 5.375 1.375 C5.375 2.035 5.375 2.695 5.375 3.375 C6.2721875 3.7771875 6.2721875 3.7771875 7.1875 4.1875 C9.37347854 5.37417406 10.78832594 6.47099113 12.375 8.375 C12.375 9.035 12.375 9.695 12.375 10.375 C12.931875 10.58125 13.48875 10.7875 14.0625 11 C17.25696185 12.89940975 19.49623102 15.20229285 21.375 18.375 C22.1875 21.6875 22.1875 21.6875 21.375 25.375 C19.00515129 28.68481274 16.25933969 31.51210522 13.375 34.375 C12.86710937 34.91898438 12.35921875 35.46296875 11.8359375 36.0234375 C9.68949739 38.30156106 8.40262675 39.36579108 5.375 40.375 C5.375 41.035 5.375 41.695 5.375 42.375 C2.28326248 43.92086876 -0.21929552 43.66859521 -3.625 43.375 C-6.62839193 41.37273871 -7.43963343 40.11646627 -8.3125 36.625 C-7.4184404 32.39853643 -5.39101187 30.37599352 -2.44921875 27.3046875 C-0.67062058 25.42325818 0.86050713 23.47199013 2.375 21.375 C1.73691406 20.80652344 1.09882813 20.23804687 0.44140625 19.65234375 C-6.27447259 13.3765069 -6.27447259 13.3765069 -7.9375 8.625 C-7.4028893 3.06504867 -5.66431784 0.58596391 0 0 Z " fill="#030303" transform="translate(161.625,90.625)"/>
<path d="M0 0 C2.4375 1.5625 2.4375 1.5625 4 4 C4.58554124 8.025596 4.5306339 10.14282217 2.375 13.625 C-0.29298542 16.29298542 -3.04748555 18.65140896 -6 21 C-5.08552154 22.08518111 -4.16829593 23.16804738 -3.25 24.25 C-2.70601562 24.89453125 -2.16203125 25.5390625 -1.6015625 26.203125 C0.03746223 28.12790429 0.03746223 28.12790429 2.375 30 C4 32 4 32 4.5 35.5 C4 39 4 39 2.4375 41.4375 C-0.93705737 43.6006778 -3.0436127 43.4213405 -7 43 C-9.6953125 40.98828125 -9.6953125 40.98828125 -12.125 38.3125 C-12.93195313 37.44238281 -13.73890625 36.57226562 -14.5703125 35.67578125 C-15.37210938 34.79277344 -16.17390625 33.90976563 -17 33 C-20.25370152 29.6396443 -20.25370152 29.6396443 -23.8125 26.625 C-25 25 -25 25 -25.625 21.8125 C-24.76071593 16.54036719 -21.98260211 13.46900863 -18 10 C-17.34 10 -16.68 10 -16 10 C-15.67 9.01 -15.34 8.02 -15 7 C-14.34 7 -13.68 7 -13 7 C-12.7525 6.401875 -12.505 5.80375 -12.25 5.1875 C-9.27929966 -0.0112256 -5.80992444 -0.72624055 0 0 Z " fill="#040404" transform="translate(109,91)"/>
<path d="M0 0 C2.4375 1.5625 2.4375 1.5625 4 4 C4.7283963 10.3775143 2.72130045 14.64447026 -0.0625 20.1875 C-0.46863525 21.01813965 -0.87477051 21.8487793 -1.29321289 22.70458984 C-10.45857337 41.22928668 -10.45857337 41.22928668 -14 43 C-18.05263598 43.54035146 -19.53730231 43.34199395 -22.875 40.875 C-25.44315445 37.4004381 -25.46252212 36.23385634 -25 32 C-23.89906002 29.55505538 -22.78100653 27.36220413 -21.4375 25.0625 C-18.07721425 19.08439594 -15.07384726 13.04183195 -12.34741211 6.74829102 C-9.55800514 0.51000878 -6.75933275 -0.71150871 0 0 Z " fill="#030303" transform="translate(144,91)"/>
<path d="M0 0 C-0.8125 3.4375 -0.8125 3.4375 -2 7 C-5.13349732 8.04449911 -5.98968256 7.93423645 -9 7 C-9.33 7.66 -9.66 8.32 -10 9 C-10.33 8.01 -10.66 7.02 -11 6 C-10.01 5.67 -9.02 5.34 -8 5 C-7.67 4.34 -7.34 3.68 -7 3 C-2.5 0 -2.5 0 0 0 Z " fill="#090909" transform="translate(144,54)"/>
<path d="M0 0 C1.9375 0.8125 1.9375 0.8125 4 2 C4.33 2.99 4.66 3.98 5 5 C5.66 5.33 6.32 5.66 7 6 C5.02 6.99 5.02 6.99 3 8 C2.67 7.01 2.34 6.02 2 5 C1.01 5.495 1.01 5.495 0 6 C-0.38218767 4.34385343 -0.71395102 2.67542976 -1 1 C-0.67 0.67 -0.34 0.34 0 0 Z " fill="#090909" transform="translate(125,123)"/>
<path d="M0 0 C2.97 0.495 2.97 0.495 6 1 C6.33 1.99 6.66 2.98 7 4 C5.35 4.66 3.7 5.32 2 6 C1.34 5.34 0.68 4.68 0 4 C0 2.68 0 1.36 0 0 Z " fill="#0D0A0B" transform="translate(105,91)"/>
<path d="M0 0 C1.875 0.75 1.875 0.75 2.875 2.75 C0.26917629 3.68065133 -0.76698224 3.89917407 -3.375 2.8125 C-3.9525 2.461875 -4.53 2.11125 -5.125 1.75 C-2.125 -0.25 -2.125 -0.25 0 0 Z " fill="#100F0F" transform="translate(150.125,51.25)"/>
<path d="M0 0 C3.3 0 6.6 0 10 0 C10 0.99 10 1.98 10 3 C6.7 2.34 3.4 1.68 0 1 C0 0.67 0 0.34 0 0 Z " fill="#09080A" transform="translate(158,49)"/>
<path d="" fill="#333333" transform="translate(0,0)"/>
</svg>
